:FULLY-SPECIFIED
:FORCE-ALL-JOINTS-BE-3DOF
:DEGREES
985
root 2.00531 15.439 34.0685 2.86463 2.84834 364.199
lfemur 3.13797 6.89112 1.24662
ltibia 15.1076 0 0
lfoot -24.7598 -15.5535 0
ltoes -26.6946 0 0
rfemur -30.3509 -15.6504 -10.6823
rtibia 54.1415 0 0
rfoot -8.79861 -4.90962 0
rtoes -15.427 0 0
lowerback -0.33868 -1.08272 -1.81781
upperback -0.396454 -1.50356 -5.53749
thorax -0.351405 -0.751832 -4.68881
lowerneck -7.24737 -1.92417 3.03654
upperneck 3.2425 -3.09507 4.70324
head 2.4624 -1.37916 0.823433
lclavicle 1.31672e-14 -4.8865e-15 0
lhumerus -56.2061 -48.0109 116.692
lradius 56.8064 0 0
lwrist 20.0913 0 0
lhand 42.3881 24.2023 0
lfingers 7.12502 0 0
lthumb 65.0712 37.6831 0
rclavicle 1.31672e-14 -4.8865e-15 0
rhumerus -15.4897 -12.8425 -28.939
rradius 60.5924 0 0
rwrist -10.8823 0 0
rhand -21.5955 -31.7566 0
rfingers 7.12502 0 0
rthumb 4.78409 -781.251 0
986
root 1.97553 15.4265 34.0373 2.93199 2.60682 364.199
lfemur 3.42015 6.68258 1.41575
ltibia 14.5345 0 0
lfoot -24.975 -15.4265 0
ltoes -27.0473 0 0
rfemur -30.4535 -15.6951 -10.5875
rtibia 54.0545 0 0
rfoot -9.25258 -4.57433 0
rtoes -16.3908 0 0
lowerback -0.378352 -1.0649 -1.75325
upperback -0.402785 -1.47786 -5.55914
thorax -0.33374 -0.73929 -4.74853
lowerneck -7.2486 -1.8214 3.14365
upperneck 3.19408 -2.96374 4.66847
head 2.44073 -1.31446 0.799993
lclavicle 1.30133e-14 -5.37888e-15 0
lhumerus -56.2977 -48.0399 116.698
lradius 56.7623 0 0
lwrist 20.2642 0 0
lhand 42.3238 24.2616 0
lfingers 7.12502 0 0
lthumb 65.0052 37.7183 0
rclavicle 1.30133e-14 -5.37888e-15 0
rhumerus -14.8055 -13.3585 -27.7355
rradius 59.4192 0 0
rwrist -10.8998 0 0
rhand -21.9333 -32.1713 0
rfingers 7.12502 0 0
rthumb 4.45839 -781.681 0
987
root 1.94547 15.4141 34.0038 3.00016 2.36454 364.199
lfemur 3.6971 6.47134 1.58509
ltibia 13.9599 0 0
lfoot -25.1898 -15.2961 0
ltoes -27.3962 0 0
rfemur -30.5527 -15.7372 -10.4866
rtibia 53.9626 0 0
rfoot -9.71267 -4.23712 0
rtoes -17.3631 0 0
lowerback -0.417947 -1.04593 -1.68705
upperback -0.409087 -1.45059 -5.58018
thorax -0.31594 -0.725961 -4.80857
lowerneck -7.24965 -1.71784 3.2515
upperneck 3.14448 -2.83133 4.63289
head 2.41855 -1.24926 0.77623
lclavicle 1.28418e-14 -5.8758e-15 0
lhumerus -56.3897 -48.0624 116.701
lradius 56.718 0 0
lwrist 20.4388 0 0
lhand 42.2498 24.3179 0
lfingers 7.12502 0 0
lthumb 64.93 37.753 0
rclavicle 1.28418e-14 -5.8758e-15 0
rhumerus -14.1186 -13.8691 -26.5363
rradius 58.2377 0 0
rwrist -10.9155 0 0
rhand -22.2729 -32.5887 0
rfingers 7.12502 0 0
rthumb 4.13096 -782.113 0
988
root 1.91513 15.4018 33.968 3.06913 2.12155 364.196
lfemur 3.96865 6.25743 1.75462
ltibia 13.384 0 0
lfoot -25.4041 -15.1622 0
ltoes -27.7412 0 0
rfemur -30.6484 -15.7768 -10.3796
rtibia 53.8657 0 0
rfoot -10.1789 -3.89802 0
rtoes -18.3441 0 0
lowerback -0.457455 -1.02578 -1.61921
upperback -0.41536 -1.4217 -5.6006
thorax -0.298008 -0.711834 -4.86893
lowerneck -7.25052 -1.61349 3.36008
upperneck 3.09367 -2.69786 4.59651
head 2.39588 -1.18357 0.752145
lclavicle 1.26525e-14 -6.37725e-15 0
lhumerus -56.482 -48.0785 116.7
lradius 56.6735 0 0
lwrist 20.6151 0 0
lhand 42.1658 24.3713 0
lfingers 7.12502 0 0
lthumb 64.8454 37.7873 0
rclavicle 1.26525e-14 -6.37725e-15 0
rhumerus -13.429 -14.374 -25.3416
rradius 57.0481 0 0
rwrist -10.9292 0 0
rhand -22.6142 -33.0088 0
rfingers 7.12502 0 0
rthumb 3.80183 -782.549 0
989
root 1.88451 15.3896 33.9297 3.1389 1.87787 364.192
lfemur 4.23467 6.04083 1.92429
ltibia 12.8068 0 0
lfoot -25.618 -15.0249 0
ltoes -28.0822 0 0
rfemur -30.7404 -15.8137 -10.2665
rtibia 53.7638 0 0
rfoot -10.6512 -3.55708 0
rtoes -19.3334 0 0
lowerback -0.496867 -1.00445 -1.5497
upperback -0.421601 -1.3912 -5.6204
thorax -0.279946 -0.696899 -4.92959
lowerneck -7.25121 -1.50837 3.46939
upperneck 3.04166 -2.56334 4.5593
head 2.3727 -1.11738 0.727736
lclavicle 1.24451e-14 -6.88318e-15 0
lhumerus -56.5746 -48.0879 116.694
lradius 56.6288 0 0
lwrist 20.793 0 0
lhand 42.0718 24.4216 0
lfingers 7.12502 0 0
lthumb 64.7513 37.8212 0
rclavicle 1.24451e-14 -6.88318e-15 0
rhumerus -12.7368 -14.8732 -24.1519
rradius 55.8504 0 0
rwrist -10.941 0 0
rhand -22.9573 -33.4316 0
rfingers 7.12502 0 0
rthumb 3.47106 -782.988 0
990
root 1.85361 15.3776 33.8891 3.20946 1.63355 364.187
lfemur 4.49501 5.82156 2.09407
ltibia 12.2285 0 0
lfoot -25.8315 -14.8841 0
ltoes -28.419 0 0
rfemur -30.8288 -15.848 -10.147
rtibia 53.6567 0 0
rfoot -11.1297 -3.21434 0
rtoes -20.3312 0 0
lowerback -0.536173 -0.981923 -1.47852
upperback -0.427809 -1.35905 -5.63954
thorax -0.261754 -0.681145 -4.99055
lowerneck -7.25171 -1.40249 3.57942
upperneck 2.98844 -2.42778 4.52127
head 2.34901 -1.0507 0.703005
lclavicle 1.22193e-14 -7.39357e-15 0
lhumerus -56.6674 -48.0906 116.684
lradius 56.5838 0 0
lwrist 20.9727 0 0
lhand 41.9675 24.4688 0
lfingers 7.12502 0 0
lthumb 64.6476 37.8545 0
rclavicle 1.22193e-14 -7.39357e-15 0
rhumerus -12.0422 -15.3662 -22.9674
rradius 54.6449 0 0
rwrist -10.9509 0 0
rhand -23.302 -33.857 0
rfingers 7.12502 0 0
rthumb 3.13867 -783.429 0
991
root 1.82244 15.3657 33.8459 3.28082 1.38864 364.18
lfemur 4.74951 5.5996 2.26393
ltibia 11.6492 0 0
lfoot -26.0443 -14.7397 0
ltoes -28.7515 0 0
rfemur -30.9135 -15.8795 -10.0213
rtibia 53.5445 0 0
rfoot -11.6142 -2.86984 0
rtoes -21.3373 0 0
lowerback -0.575362 -0.958178 -1.40566
upperback -0.433982 -1.32523 -5.65803
thorax -0.243436 -0.664563 -5.0518
lowerneck -7.25202 -1.29585 3.69015
upperneck 2.93398 -2.29119 4.48241
head 2.32481 -0.983546 0.67795
lclavicle 1.19749e-14 -7.90838e-15 0
lhumerus -56.7606 -48.0864 116.671
lradius 56.5387 0 0
lwrist 21.154 0 0
lhand 41.8529 24.5129 0
lfingers 7.12502 0 0
lthumb 64.5341 37.8874 0
rclavicle 1.19749e-14 -7.90838e-15 0
rhumerus -11.3452 -15.8531 -21.7885
rradius 53.4315 0 0
rwrist -10.9587 0 0
rhand -23.6483 -34.285 0
rfingers 7.12502 0 0
rthumb 2.80473 -783.873 0
992
root 1.791 15.3539 33.8004 3.35297 1.14316 364.171
lfemur 4.99804 5.37497 2.43383
ltibia 11.0689 0 0
lfoot -26.2565 -14.5919 0
ltoes -29.0796 0 0
rfemur -30.9942 -15.9083 -9.88905
rtibia 53.4271 0 0
rfoot -12.1049 -2.52362 0
rtoes -22.3516 0 0
lowerback -0.614426 -0.933203 -1.3311
upperback -0.440117 -1.28973 -5.67583
thorax -0.224991 -0.647142 -5.11333
lowerneck -7.25214 -1.18847 3.80157
upperneck 2.8783 -2.15358 4.44271
head 2.30009 -0.915917 0.652571
lclavicle 1.17116e-14 -8.42758e-15 0
lhumerus -56.8541 -48.0752 116.652
lradius 56.4935 0 0
lwrist 21.3369 0 0
lhand 41.7278 24.5538 0
lfingers 7.12502 0 0
lthumb 64.4107 37.9198 0
rclavicle 1.17116e-14 -8.42758e-15 0
rhumerus -10.646 -16.3334 -20.6155
rradius 52.2105 0 0
rwrist -10.9645 0 0
rhand -23.9963 -34.7156 0
rfingers 7.12502 0 0
rthumb 2.46926 -784.319 0
993
root 1.75928 15.3423 33.7523 3.42592 0.897166 364.16
lfemur 5.24045 5.14765 2.60375
ltibia 10.4878 0 0
lfoot -26.4681 -14.4404 0
ltoes -29.403 0 0
rfemur -31.0711 -15.9342 -9.75033
rtibia 53.3043 0 0
rfoot -12.6018 -2.17572 0
rtoes -23.3741 0 0
lowerback -0.653353 -0.906983 -1.25483
upperback -0.446213 -1.25253 -5.69295
thorax -0.206423 -0.628872 -5.17514
lowerneck -7.25207 -1.08035 3.91367
upperneck 2.82137 -2.01496 4.40218
head 2.27486 -0.84782 0.626869
lclavicle 1.14292e-14 -8.95113e-15 0
lhumerus -56.9477 -48.057 116.63
lradius 56.448 0 0
lwrist 21.5215 0 0
lhand 41.592 24.5914 0
lfingers 7.12502 0 0
lthumb 64.2772 37.9516 0
rclavicle 1.14292e-14 -8.95113e-15 0
rhumerus -9.94468 -16.8071 -19.4487
rradius 50.9819 0 0
rwrist -10.9682 0 0
rhand -24.3457 -35.1486 0
rfingers 7.12502 0 0
rthumb 2.13231 -784.769 0
994
root 1.7273 15.3308 33.7016 3.49966 0.650691 364.148
lfemur 5.47658 4.91767 2.77364
ltibia 9.90595 0 0
lfoot -26.6789 -14.2853 0
ltoes -29.7218 0 0
rfemur -31.1439 -15.9572 -9.60503
rtibia 53.1762 0 0
rfoot -13.1047 -1.82619 0
rtoes -24.4048 0 0
lowerback -0.692135 -0.879503 -1.17684
upperback -0.452269 -1.2136 -5.70936
thorax -0.187733 -0.609743 -5.23721
lowerneck -7.2518 -0.971502 4.02645
upperneck 2.76319 -1.87534 4.36079
head 2.24909 -0.77926 0.600842
lclavicle 1.11274e-14 -9.47901e-15 0
lhumerus -57.0417 -48.0315 116.603
lradius 56.4023 0 0
lwrist 21.7077 0 0
lhand 41.4454 24.6256 0
lfingers 7.12502 0 0
lthumb 64.1336 37.9829 0
rclavicle 1.11274e-14 -9.47901e-15 0
rhumerus -9.24129 -17.274 -18.2885
rradius 49.7459 0 0
rwrist -10.9698 0 0
rhand -24.6967 -35.5841 0
rfingers 7.12502 0 0
rthumb 1.79393 -785.221 0
995
root 1.69504 15.3195 33.6484 3.57418 0.403778 364.135
lfemur 5.70629 4.68501 2.94348
ltibia 9.32347 0 0
lfoot -26.889 -14.1266 0
ltoes -30.0357 0 0
rfemur -31.2127 -15.9773 -9.45306
rtibia 53.0427 0 0
rfoot -13.6138 -1.47506 0
rtoes -25.4434 0 0
lowerback -0.730761 -0.850746 -1.0971
upperback -0.458282 -1.17292 -5.72505
thorax -0.168922 -0.589744 -5.29954
lowerneck -7.25133 -0.86194 4.13988
upperneck 2.70376 -1.73474 4.31856
head 2.22281 -0.710244 0.574492
lclavicle 1.0806e-14 -1.00112e-14 0
lhumerus -57.1358 -47.9988 116.571
lradius 56.3565 0 0
lwrist 21.8955 0 0
lhand 41.2878 24.6565 0
lfingers 7.12502 0 0
lthumb 63.9796 38.0136 0
rclavicle 1.0806e-14 -1.00112e-14 0
rhumerus -8.53596 -17.7338 -17.1353
rradius 48.5026 0 0
rwrist -10.9692 0 0
rhand -25.0491 -36.0219 0
rfingers 7.12502 0 0
rthumb 1.45415 -785.675 0
996
root 1.66252 15.3084 33.5926 3.6495 0.156465 364.119
lfemur 5.92943 4.44967 3.11323
ltibia 8.74045 0 0
lfoot -27.0982 -13.9643 0
ltoes -30.3445 0 0
rfemur -31.2773 -15.9944 -9.29434
rtibia 52.9038 0 0
rfoot -14.129 -1.12237 0
rtoes -26.4901 0 0
lowerback -0.769221 -0.8207 -1.01562
upperback -0.46425 -1.13047 -5.74001
thorax -0.149992 -0.568866 -5.36212
lowerneck -7.25065 -0.75167 4.25396
upperneck 2.64305 -1.59317 4.27546
head 2.19599 -0.640777 0.547817
lclavicle 1.04647e-14 -1.05476e-14 0
lhumerus -57.2302 -47.9586 116.535
lradius 56.3106 0 0
lwrist 22.0849 0 0
lhand 41.1192 24.6839 0
lfingers 7.12502 0 0
lthumb 63.8152 38.0438 0
rclavicle 1.04647e-14 -1.05476e-14 0
rhumerus -7.8288 -18.1864 -15.9893
rradius 47.2521 0 0
rwrist -10.9665 0 0
rhand -25.4029 -36.4621 0
rfingers 7.12502 0 0
rthumb 1.11301 -786.132 0
997
root 1.62974 15.2974 33.5341 3.7256 -0.0912063 364.102
lfemur 6.14586 4.21166 3.28286
ltibia 8.157 0 0
lfoot -27.3066 -13.7982 0
ltoes -30.6483 0 0
rfemur -31.3377 -16.0084 -9.12881
rtibia 52.7592 0 0
rfoot -14.6504 -0.768181 0
rtoes -27.5446 0 0
lowerback -0.807505 -0.789347 -0.932382
upperback -0.470173 -1.08624 -5.75421
thorax -0.130944 -0.547098 -5.42495
lowerneck -7.24977 -0.640702 4.36868
upperneck 2.58106 -1.45063 4.2315
head 2.16864 -0.570865 0.520817
lclavicle 1.01032e-14 -1.10883e-14 0
lhumerus -57.3247 -47.9109 116.494
lradius 56.2644 0 0
lwrist 22.2759 0 0
lhand 40.9393 24.7078 0
lfingers 7.12502 0 0
lthumb 63.6402 38.0734 0
rclavicle 1.01032e-14 -1.10883e-14 0
rhumerus -7.11991 -18.6315 -14.8508
rradius 45.9945 0 0
rwrist -10.9615 0 0
rhand -25.7581 -36.9047 0
rfingers 7.12502 0 0
rthumb 0.770574 -786.592 0
